# xmcd
#
# Track frame offsets:
#	150
#	14987
#	25535
#	36900
#	47185
#	55700
#	68850
#	82965
#	92677
#	104135
#	115082
#	124567
#	134350
#	142860
#	152145
#	162872
#	170307
#	179907
#
# Disc length: 2577 seconds
#
# Revision: 4
# Processed by: cddbd v1.5.2PL0 Copyright (c) Steve Scherf et al.
# Submitted via: audiograbber 1.83.01
#
DISCID=f40a0f12
DTITLE=Elvis Presley - Golden Records Vol 3
DYEAR=1900
DGENRE=
TTITLE0=It's Now Or Never
TTITLE1=Stuck On You
TTITLE2=Fame And Fortune
TTITLE3=I Gotta Know
TTITLE4=Surrender
TTITLE5=I Feel So Bad
TTITLE6=Are You Lonesome Tonight?
TTITLE7=(Mary's the name) His Latest Flame
TTITLE8=Little Sister
TTITLE9=Good Luck Charm
TTITLE10=Anything That's Part Of You
TTITLE11=She's Not You
TTITLE12=Wild In The Country
TTITLE13=Wooden Heart
TTITLE14=The Girl Of My Best Friend
TTITLE15=Follow That Dream
TTITLE16=King Of The Whole Wide World
TTITLE17=Can't Help Falling In Love
EXTD=
EXTT0=
EXTT1=
EXTT2=
EXTT3=
EXTT4=
EXTT5=
EXTT6=
EXTT7=
EXTT8=
EXTT9=
EXTT10=
EXTT11=
EXTT12=
EXTT13=
EXTT14=
EXTT15=
EXTT16=
EXTT17=
PLAYORDER=
